<?xml version="1.0" standalone="no"?>
<!DOCTYPE svg PUBLIC "-//W3C//DTD SVG 20010904//EN"
 "http://www.w3.org/TR/2001/REC-SVG-20010904/DTD/svg10.dtd">
<svg version="1.0" xmlns="http://www.w3.org/2000/svg"
 width="300.000000pt" height="300.000000pt" viewBox="0 0 300.000000 300.000000"
 preserveAspectRatio="xMidYMid meet">
<metadata>
Created by potrace 1.11, written by Peter Selinger 2001-2013
</metadata>
<g transform="translate(0.000000,300.000000) scale(0.100000,-0.100000)"
fill="#000000" stroke="none">
<path d="M140 2930 l0 -70 -70 0 c-40 0 -70 -4 -70 -10 0 -6 30 -10 70 -10
l70 0 0 -440 0 -440 -70 0 c-40 0 -70 -4 -70 -10 0 -6 30 -10 70 -10 l70 0 0
-440 0 -440 -70 0 c-40 0 -70 -4 -70 -10 0 -6 30 -10 70 -10 l70 0 0 -440 0
-440 -70 0 c-40 0 -70 -4 -70 -10 0 -6 30 -10 70 -10 l70 0 0 -70 c0 -40 4
-70 10 -70 6 0 10 30 10 70 l0 70 440 0 440 0 0 -70 c0 -40 4 -70 10 -70 6 0
10 30 10 70 l0 70 440 0 440 0 0 -70 c0 -40 4 -70 10 -70 6 0 10 30 10 70 l0
70 440 0 440 0 0 -70 c0 -40 4 -70 10 -70 6 0 10 30 10 70 l0 70 70 0 c40 0
70 4 70 10 0 6 -30 10 -70 10 l-70 0 0 440 0 440 70 0 c40 0 70 4 70 10 0 6
-30 10 -70 10 l-70 0 0 440 0 440 70 0 c40 0 70 4 70 10 0 6 -30 10 -70 10
l-70 0 0 440 0 440 70 0 c40 0 70 4 70 10 0 6 -30 10 -70 10 l-70 0 0 70 c0
40 -4 70 -10 70 -6 0 -10 -30 -10 -70 l0 -70 -440 0 -440 0 0 70 c0 40 -4 70
-10 70 -6 0 -10 -30 -10 -70 l0 -70 -440 0 -440 0 0 70 c0 40 -4 70 -10 70 -6
0 -10 -30 -10 -70 l0 -70 -440 0 -440 0 0 70 c0 40 -4 70 -10 70 -6 0 -10 -30
-10 -70z m900 -530 l0 -440 -440 0 -440 0 0 440 0 440 440 0 440 0 0 -440z
m900 0 l0 -440 -440 0 -440 0 0 440 0 440 440 0 440 0 0 -440z m0 -900 l0
-440 -440 0 -440 0 0 440 0 440 440 0 440 0 0 -440z m-900 -900 l0 -440 -440
0 -440 0 0 440 0 440 440 0 440 0 0 -440z"/>
</g>
</svg>
